# xmcd
# Track frame offsets:
# 150
# 11990
# 22128
# 32165
# 44145
# 57068
# 69875
# 84323
# 98303
# 110808
# 123775
# 136633
#
# Disc length: 1986 seconds
# Revision: 0
# Processed by: cddbd v1.5PL3 Copyright (c) Steve Scherf et al.
# Submitted via: VisiTrax 2.9.9.209 - For more info visit www.synapsa.com
#
DISCID=9607c00c
DTITLE=Various Artist - The Blues Volume 1
DYEAR=1900
DGENRE=
TTITLE0=Sonny Boy Williamson - Don't Start Me To Talkin'
TTITLE1=Buddy Guy - First Time I Met The Blues
TTITLE2=Chuck Berry - Worried Life Blues
TTITLE3=Little Walter - My Babe
TTITLE4=John Lee Hooker - Walkin' The Boogie
TTITLE5=Muddy Waters - Hoochie Coochie Man
TTITLE6=Lowell Fulson - Reconsider Baby
TTITLE7=Howlin' Wolf - Smokestack Lightning
TTITLE8=Little Walter - Juke
TTITLE9=Jimmy Witherspoon - When The Lights Go Out
TTITLE10=Muddy Waters - Just Make Love To Me
TTITLE11=Howlin' Wolf - Spoonful
EXTD=
EXTT0=
EXTT1=
EXTT2=
EXTT3=
EXTT4=
EXTT5=
EXTT6=
EXTT7=
EXTT8=
EXTT9=
EXTT10=
EXTT11=
PLAYORDER=
